<?xml version="1.0" encoding="utf-8" standalone="no"?>
<!DOCTYPE svg PUBLIC "-//W3C//DTD SVG 1.1//EN"
  "http://www.w3.org/Graphics/SVG/1.1/DTD/svg11.dtd">
<svg xmlns:xlink="http://www.w3.org/1999/xlink" width="460.8pt" height="345.6pt" viewBox="0 0 460.8 345.6" xmlns="http://www.w3.org/2000/svg" version="1.1">
 <metadata>
  <rdf:RDF xmlns:dc="http://purl.org/dc/elements/1.1/" xmlns:cc="http://creativecommons.org/ns#" xmlns:rdf="http://www.w3.org/1999/02/22-rdf-syntax-ns#">
   <cc:Work>
    <dc:type rdf:resource="http://purl.org/dc/dcmitype/StillImage"/>
    <dc:date>2023-06-02T02:19:15.413197</dc:date>
    <dc:format>image/svg+xml</dc:format>
    <dc:creator>
     <cc:Agent>
      <dc:title>Matplotlib v3.7.1, https://matplotlib.org/</dc:title>
     </cc:Agent>
    </dc:creator>
   </cc:Work>
  </rdf:RDF>
 </metadata>
 <defs>
  <style type="text/css">*{stroke-linejoin: round; stroke-linecap: butt}</style>
 </defs>
 <g id="figure_1">
  <g id="patch_1">
   <path d="M 0 345.6 
L 460.8 345.6 
L 460.8 0 
L 0 0 
z
" style="fill: #ffffff"/>
  </g>
  <g id="axes_1">
   <g id="patch_2">
    <path d="M 57.6 307.584 
L 414.72 307.584 
L 414.72 41.472 
L 57.6 41.472 
z
" style="fill: #ffffff"/>
   </g>
   <g id="matplotlib.axis_1">
    <g id="xtick_1">
     <g id="line2d_1">
      <defs>
       <path id="ma5f09ac2d3" d="M 0 0 
L 0 3.5 
" style="stroke: #000000; stroke-width: 0.8"/>
      </defs>
      <g>
       <use xlink:href="#ma5f09ac2d3" x="57.6" y="307.584" style="stroke: #000000; stroke-width: 0.8"/>
      </g>
     </g>
     <g id="text_1">
      <!-- G -->
      <g transform="translate(53.725781 322.182437) scale(0.1 -0.1)">
       <defs>
        <path id="DejaVuSans-47" d="M 3809 666 
L 3809 1919 
L 2778 1919 
L 2778 2438 
L 4434 2438 
L 4434 434 
Q 4069 175 3628 42 
Q 3188 -91 2688 -91 
Q 1594 -91 976 548 
Q 359 1188 359 2328 
Q 359 3472 976 4111 
Q 1594 4750 2688 4750 
Q 3144 4750 3555 4637 
Q 3966 4525 4313 4306 
L 4313 3634 
Q 3963 3931 3569 4081 
Q 3175 4231 2741 4231 
Q 1884 4231 1454 3753 
Q 1025 3275 1025 2328 
Q 1025 1384 1454 906 
Q 1884 428 2741 428 
Q 3075 428 3337 486 
Q 3600 544 3809 666 
z
" transform="scale(0.015625)"/>
       </defs>
       <use xlink:href="#DejaVuSans-47"/>
      </g>
     </g>
    </g>
    <g id="xtick_2">
     <g id="line2d_2">
      <g>
       <use xlink:href="#ma5f09ac2d3" x="414.72" y="307.584" style="stroke: #000000; stroke-width: 0.8"/>
      </g>
     </g>
     <g id="text_2">
      <!-- Z -->
      <g transform="translate(411.295 322.182437) scale(0.1 -0.1)">
       <defs>
        <path id="DejaVuSans-5a" d="M 359 4666 
L 4025 4666 
L 4025 4184 
L 1075 531 
L 4097 531 
L 4097 0 
L 288 0 
L 288 481 
L 3238 4134 
L 359 4134 
L 359 4666 
z
" transform="scale(0.015625)"/>
       </defs>
       <use xlink:href="#DejaVuSans-5a"/>
      </g>
     </g>
    </g>
    <g id="text_3">
     <!-- k-points -->
     <g transform="translate(216.104531 335.860562) scale(0.1 -0.1)">
      <defs>
       <path id="DejaVuSans-6b" d="M 581 4863 
L 1159 4863 
L 1159 1991 
L 2875 3500 
L 3609 3500 
L 1753 1863 
L 3688 0 
L 2938 0 
L 1159 1709 
L 1159 0 
L 581 0 
L 581 4863 
z
" transform="scale(0.015625)"/>
       <path id="DejaVuSans-2d" d="M 313 2009 
L 1997 2009 
L 1997 1497 
L 313 1497 
L 313 2009 
z
" transform="scale(0.015625)"/>
       <path id="DejaVuSans-70" d="M 1159 525 
L 1159 -1331 
L 581 -1331 
L 581 3500 
L 1159 3500 
L 1159 2969 
Q 1341 3281 1617 3432 
Q 1894 3584 2278 3584 
Q 2916 3584 3314 3078 
Q 3713 2572 3713 1747 
Q 3713 922 3314 415 
Q 2916 -91 2278 -91 
Q 1894 -91 1617 61 
Q 1341 213 1159 525 
z
M 3116 1747 
Q 3116 2381 2855 2742 
Q 2594 3103 2138 3103 
Q 1681 3103 1420 2742 
Q 1159 2381 1159 1747 
Q 1159 1113 1420 752 
Q 1681 391 2138 391 
Q 2594 391 2855 752 
Q 3116 1113 3116 1747 
z
" transform="scale(0.015625)"/>
       <path id="DejaVuSans-6f" d="M 1959 3097 
Q 1497 3097 1228 2736 
Q 959 2375 959 1747 
Q 959 1119 1226 758 
Q 1494 397 1959 397 
Q 2419 397 2687 759 
Q 2956 1122 2956 1747 
Q 2956 2369 2687 2733 
Q 2419 3097 1959 3097 
z
M 1959 3584 
Q 2709 3584 3137 3096 
Q 3566 2609 3566 1747 
Q 3566 888 3137 398 
Q 2709 -91 1959 -91 
Q 1206 -91 779 398 
Q 353 888 353 1747 
Q 353 2609 779 3096 
Q 1206 3584 1959 3584 
z
" transform="scale(0.015625)"/>
       <path id="DejaVuSans-69" d="M 603 3500 
L 1178 3500 
L 1178 0 
L 603 0 
L 603 3500 
z
M 603 4863 
L 1178 4863 
L 1178 4134 
L 603 4134 
L 603 4863 
z
" transform="scale(0.015625)"/>
       <path id="DejaVuSans-6e" d="M 3513 2113 
L 3513 0 
L 2938 0 
L 2938 2094 
Q 2938 2591 2744 2837 
Q 2550 3084 2163 3084 
Q 1697 3084 1428 2787 
Q 1159 2491 1159 1978 
L 1159 0 
L 581 0 
L 581 3500 
L 1159 3500 
L 1159 2956 
Q 1366 3272 1645 3428 
Q 1925 3584 2291 3584 
Q 2894 3584 3203 3211 
Q 3513 2838 3513 2113 
z
" transform="scale(0.015625)"/>
       <path id="DejaVuSans-74" d="M 1172 4494 
L 1172 3500 
L 2356 3500 
L 2356 3053 
L 1172 3053 
L 1172 1153 
Q 1172 725 1289 603 
Q 1406 481 1766 481 
L 2356 481 
L 2356 0 
L 1766 0 
Q 1100 0 847 248 
Q 594 497 594 1153 
L 594 3053 
L 172 3053 
L 172 3500 
L 594 3500 
L 594 4494 
L 1172 4494 
z
" transform="scale(0.015625)"/>
       <path id="DejaVuSans-73" d="M 2834 3397 
L 2834 2853 
Q 2591 2978 2328 3040 
Q 2066 3103 1784 3103 
Q 1356 3103 1142 2972 
Q 928 2841 928 2578 
Q 928 2378 1081 2264 
Q 1234 2150 1697 2047 
L 1894 2003 
Q 2506 1872 2764 1633 
Q 3022 1394 3022 966 
Q 3022 478 2636 193 
Q 2250 -91 1575 -91 
Q 1294 -91 989 -36 
Q 684 19 347 128 
L 347 722 
Q 666 556 975 473 
Q 1284 391 1588 391 
Q 1994 391 2212 530 
Q 2431 669 2431 922 
Q 2431 1156 2273 1281 
Q 2116 1406 1581 1522 
L 1381 1569 
Q 847 1681 609 1914 
Q 372 2147 372 2553 
Q 372 3047 722 3315 
Q 1072 3584 1716 3584 
Q 2034 3584 2315 3537 
Q 2597 3491 2834 3397 
z
" transform="scale(0.015625)"/>
      </defs>
      <use xlink:href="#DejaVuSans-6b"/>
      <use xlink:href="#DejaVuSans-2d" x="57.910156"/>
      <use xlink:href="#DejaVuSans-70" x="93.994141"/>
      <use xlink:href="#DejaVuSans-6f" x="157.470703"/>
      <use xlink:href="#DejaVuSans-69" x="218.652344"/>
      <use xlink:href="#DejaVuSans-6e" x="246.435547"/>
      <use xlink:href="#DejaVuSans-74" x="309.814453"/>
      <use xlink:href="#DejaVuSans-73" x="349.023438"/>
     </g>
    </g>
   </g>
   <g id="matplotlib.axis_2">
    <g id="ytick_1">
     <g id="line2d_3">
      <defs>
       <path id="m83befc0618" d="M 0 0 
L -3.5 0 
" style="stroke: #000000; stroke-width: 0.8"/>
      </defs>
      <g>
       <use xlink:href="#m83befc0618" x="57.6" y="307.584" style="stroke: #000000; stroke-width: 0.8"/>
      </g>
     </g>
     <g id="text_4">
      <!-- −20 -->
      <g transform="translate(29.495313 311.383219) scale(0.1 -0.1)">
       <defs>
        <path id="DejaVuSans-2212" d="M 678 2272 
L 4684 2272 
L 4684 1741 
L 678 1741 
L 678 2272 
z
" transform="scale(0.015625)"/>
        <path id="DejaVuSans-32" d="M 1228 531 
L 3431 531 
L 3431 0 
L 469 0 
L 469 531 
Q 828 903 1448 1529 
Q 2069 2156 2228 2338 
Q 2531 2678 2651 2914 
Q 2772 3150 2772 3378 
Q 2772 3750 2511 3984 
Q 2250 4219 1831 4219 
Q 1534 4219 1204 4116 
Q 875 4013 500 3803 
L 500 4441 
Q 881 4594 1212 4672 
Q 1544 4750 1819 4750 
Q 2544 4750 2975 4387 
Q 3406 4025 3406 3419 
Q 3406 3131 3298 2873 
Q 3191 2616 2906 2266 
Q 2828 2175 2409 1742 
Q 1991 1309 1228 531 
z
" transform="scale(0.015625)"/>
        <path id="DejaVuSans-30" d="M 2034 4250 
Q 1547 4250 1301 3770 
Q 1056 3291 1056 2328 
Q 1056 1369 1301 889 
Q 1547 409 2034 409 
Q 2525 409 2770 889 
Q 3016 1369 3016 2328 
Q 3016 3291 2770 3770 
Q 2525 4250 2034 4250 
z
M 2034 4750 
Q 2819 4750 3233 4129 
Q 3647 3509 3647 2328 
Q 3647 1150 3233 529 
Q 2819 -91 2034 -91 
Q 1250 -91 836 529 
Q 422 1150 422 2328 
Q 422 3509 836 4129 
Q 1250 4750 2034 4750 
z
" transform="scale(0.015625)"/>
       </defs>
       <use xlink:href="#DejaVuSans-2212"/>
       <use xlink:href="#DejaVuSans-32" x="83.789062"/>
       <use xlink:href="#DejaVuSans-30" x="147.412109"/>
      </g>
     </g>
    </g>
    <g id="ytick_2">
     <g id="line2d_4">
      <g>
       <use xlink:href="#m83befc0618" x="57.6" y="281.095181" style="stroke: #000000; stroke-width: 0.8"/>
      </g>
     </g>
     <g id="text_5">
      <!-- −15 -->
      <g transform="translate(29.495313 284.8944) scale(0.1 -0.1)">
       <defs>
        <path id="DejaVuSans-31" d="M 794 531 
L 1825 531 
L 1825 4091 
L 703 3866 
L 703 4441 
L 1819 4666 
L 2450 4666 
L 2450 531 
L 3481 531 
L 3481 0 
L 794 0 
L 794 531 
z
" transform="scale(0.015625)"/>
        <path id="DejaVuSans-35" d="M 691 4666 
L 3169 4666 
L 3169 4134 
L 1269 4134 
L 1269 2991 
Q 1406 3038 1543 3061 
Q 1681 3084 1819 3084 
Q 2600 3084 3056 2656 
Q 3513 2228 3513 1497 
Q 3513 744 3044 326 
Q 2575 -91 1722 -91 
Q 1428 -91 1123 -41 
Q 819 9 494 109 
L 494 744 
Q 775 591 1075 516 
Q 1375 441 1709 441 
Q 2250 441 2565 725 
Q 2881 1009 2881 1497 
Q 2881 1984 2565 2268 
Q 2250 2553 1709 2553 
Q 1456 2553 1204 2497 
Q 953 2441 691 2322 
L 691 4666 
z
" transform="scale(0.015625)"/>
       </defs>
       <use xlink:href="#DejaVuSans-2212"/>
       <use xlink:href="#DejaVuSans-31" x="83.789062"/>
       <use xlink:href="#DejaVuSans-35" x="147.412109"/>
      </g>
     </g>
    </g>
    <g id="ytick_3">
     <g id="line2d_5">
      <g>
       <use xlink:href="#m83befc0618" x="57.6" y="254.606362" style="stroke: #000000; stroke-width: 0.8"/>
      </g>
     </g>
     <g id="text_6">
      <!-- −10 -->
      <g transform="translate(29.495313 258.405581) scale(0.1 -0.1)">
       <use xlink:href="#DejaVuSans-2212"/>
       <use xlink:href="#DejaVuSans-31" x="83.789062"/>
       <use xlink:href="#DejaVuSans-30" x="147.412109"/>
      </g>
     </g>
    </g>
    <g id="ytick_4">
     <g id="line2d_6">
      <g>
       <use xlink:href="#m83befc0618" x="57.6" y="228.117543" style="stroke: #000000; stroke-width: 0.8"/>
      </g>
     </g>
     <g id="text_7">
      <!-- −5 -->
      <g transform="translate(35.857813 231.916762) scale(0.1 -0.1)">
       <use xlink:href="#DejaVuSans-2212"/>
       <use xlink:href="#DejaVuSans-35" x="83.789062"/>
      </g>
     </g>
    </g>
    <g id="ytick_5">
     <g id="line2d_7">
      <g>
       <use xlink:href="#m83befc0618" x="57.6" y="201.628724" style="stroke: #000000; stroke-width: 0.8"/>
      </g>
     </g>
     <g id="text_8">
      <!-- 0 -->
      <g transform="translate(44.2375 205.427943) scale(0.1 -0.1)">
       <use xlink:href="#DejaVuSans-30"/>
      </g>
     </g>
    </g>
    <g id="ytick_6">
     <g id="line2d_8">
      <g>
       <use xlink:href="#m83befc0618" x="57.6" y="175.139905" style="stroke: #000000; stroke-width: 0.8"/>
      </g>
     </g>
     <g id="text_9">
      <!-- 5 -->
      <g transform="translate(44.2375 178.939124) scale(0.1 -0.1)">
       <use xlink:href="#DejaVuSans-35"/>
      </g>
     </g>
    </g>
    <g id="ytick_7">
     <g id="line2d_9">
      <g>
       <use xlink:href="#m83befc0618" x="57.6" y="148.651086" style="stroke: #000000; stroke-width: 0.8"/>
      </g>
     </g>
     <g id="text_10">
      <!-- 10 -->
      <g transform="translate(37.875 152.450305) scale(0.1 -0.1)">
       <use xlink:href="#DejaVuSans-31"/>
       <use xlink:href="#DejaVuSans-30" x="63.623047"/>
      </g>
     </g>
    </g>
    <g id="ytick_8">
     <g id="line2d_10">
      <g>
       <use xlink:href="#m83befc0618" x="57.6" y="122.162267" style="stroke: #000000; stroke-width: 0.8"/>
      </g>
     </g>
     <g id="text_11">
      <!-- 15 -->
      <g transform="translate(37.875 125.961486) scale(0.1 -0.1)">
       <use xlink:href="#DejaVuSans-31"/>
       <use xlink:href="#DejaVuSans-35" x="63.623047"/>
      </g>
     </g>
    </g>
    <g id="ytick_9">
     <g id="line2d_11">
      <g>
       <use xlink:href="#m83befc0618" x="57.6" y="95.673448" style="stroke: #000000; stroke-width: 0.8"/>
      </g>
     </g>
     <g id="text_12">
      <!-- 20 -->
      <g transform="translate(37.875 99.472667) scale(0.1 -0.1)">
       <use xlink:href="#DejaVuSans-32"/>
       <use xlink:href="#DejaVuSans-30" x="63.623047"/>
      </g>
     </g>
    </g>
    <g id="ytick_10">
     <g id="line2d_12">
      <g>
       <use xlink:href="#m83befc0618" x="57.6" y="69.184629" style="stroke: #000000; stroke-width: 0.8"/>
      </g>
     </g>
     <g id="text_13">
      <!-- 25 -->
      <g transform="translate(37.875 72.983848) scale(0.1 -0.1)">
       <use xlink:href="#DejaVuSans-32"/>
       <use xlink:href="#DejaVuSans-35" x="63.623047"/>
      </g>
     </g>
    </g>
    <g id="text_14">
     <!-- energy (eV) -->
     <g transform="translate(23.415625 203.938938) rotate(-90) scale(0.1 -0.1)">
      <defs>
       <path id="DejaVuSans-65" d="M 3597 1894 
L 3597 1613 
L 953 1613 
Q 991 1019 1311 708 
Q 1631 397 2203 397 
Q 2534 397 2845 478 
Q 3156 559 3463 722 
L 3463 178 
Q 3153 47 2828 -22 
Q 2503 -91 2169 -91 
Q 1331 -91 842 396 
Q 353 884 353 1716 
Q 353 2575 817 3079 
Q 1281 3584 2069 3584 
Q 2775 3584 3186 3129 
Q 3597 2675 3597 1894 
z
M 3022 2063 
Q 3016 2534 2758 2815 
Q 2500 3097 2075 3097 
Q 1594 3097 1305 2825 
Q 1016 2553 972 2059 
L 3022 2063 
z
" transform="scale(0.015625)"/>
       <path id="DejaVuSans-72" d="M 2631 2963 
Q 2534 3019 2420 3045 
Q 2306 3072 2169 3072 
Q 1681 3072 1420 2755 
Q 1159 2438 1159 1844 
L 1159 0 
L 581 0 
L 581 3500 
L 1159 3500 
L 1159 2956 
Q 1341 3275 1631 3429 
Q 1922 3584 2338 3584 
Q 2397 3584 2469 3576 
Q 2541 3569 2628 3553 
L 2631 2963 
z
" transform="scale(0.015625)"/>
       <path id="DejaVuSans-67" d="M 2906 1791 
Q 2906 2416 2648 2759 
Q 2391 3103 1925 3103 
Q 1463 3103 1205 2759 
Q 947 2416 947 1791 
Q 947 1169 1205 825 
Q 1463 481 1925 481 
Q 2391 481 2648 825 
Q 2906 1169 2906 1791 
z
M 3481 434 
Q 3481 -459 3084 -895 
Q 2688 -1331 1869 -1331 
Q 1566 -1331 1297 -1286 
Q 1028 -1241 775 -1147 
L 775 -588 
Q 1028 -725 1275 -790 
Q 1522 -856 1778 -856 
Q 2344 -856 2625 -561 
Q 2906 -266 2906 331 
L 2906 616 
Q 2728 306 2450 153 
Q 2172 0 1784 0 
Q 1141 0 747 490 
Q 353 981 353 1791 
Q 353 2603 747 3093 
Q 1141 3584 1784 3584 
Q 2172 3584 2450 3431 
Q 2728 3278 2906 2969 
L 2906 3500 
L 3481 3500 
L 3481 434 
z
" transform="scale(0.015625)"/>
       <path id="DejaVuSans-79" d="M 2059 -325 
Q 1816 -950 1584 -1140 
Q 1353 -1331 966 -1331 
L 506 -1331 
L 506 -850 
L 844 -850 
Q 1081 -850 1212 -737 
Q 1344 -625 1503 -206 
L 1606 56 
L 191 3500 
L 800 3500 
L 1894 763 
L 2988 3500 
L 3597 3500 
L 2059 -325 
z
" transform="scale(0.015625)"/>
       <path id="DejaVuSans-20" transform="scale(0.015625)"/>
       <path id="DejaVuSans-28" d="M 1984 4856 
Q 1566 4138 1362 3434 
Q 1159 2731 1159 2009 
Q 1159 1288 1364 580 
Q 1569 -128 1984 -844 
L 1484 -844 
Q 1016 -109 783 600 
Q 550 1309 550 2009 
Q 550 2706 781 3412 
Q 1013 4119 1484 4856 
L 1984 4856 
z
" transform="scale(0.015625)"/>
       <path id="DejaVuSans-56" d="M 1831 0 
L 50 4666 
L 709 4666 
L 2188 738 
L 3669 4666 
L 4325 4666 
L 2547 0 
L 1831 0 
z
" transform="scale(0.015625)"/>
       <path id="DejaVuSans-29" d="M 513 4856 
L 1013 4856 
Q 1481 4119 1714 3412 
Q 1947 2706 1947 2009 
Q 1947 1309 1714 600 
Q 1481 -109 1013 -844 
L 513 -844 
Q 928 -128 1133 580 
Q 1338 1288 1338 2009 
Q 1338 2731 1133 3434 
Q 928 4138 513 4856 
z
" transform="scale(0.015625)"/>
      </defs>
      <use xlink:href="#DejaVuSans-65"/>
      <use xlink:href="#DejaVuSans-6e" x="61.523438"/>
      <use xlink:href="#DejaVuSans-65" x="124.902344"/>
      <use xlink:href="#DejaVuSans-72" x="186.425781"/>
      <use xlink:href="#DejaVuSans-67" x="225.789062"/>
      <use xlink:href="#DejaVuSans-79" x="289.265625"/>
      <use xlink:href="#DejaVuSans-20" x="348.445312"/>
      <use xlink:href="#DejaVuSans-28" x="380.232422"/>
      <use xlink:href="#DejaVuSans-65" x="419.246094"/>
      <use xlink:href="#DejaVuSans-56" x="480.769531"/>
      <use xlink:href="#DejaVuSans-29" x="549.177734"/>
     </g>
    </g>
   </g>
   <g id="line2d_13">
    <path d="M 57.6 287.697784 
L 69.500941 287.622026 
L 81.411059 287.394222 
L 93.312 287.015962 
L 105.212941 286.488305 
L 117.123059 285.813369 
L 129.024 284.994865 
L 140.924941 284.03544 
L 152.835059 282.939862 
L 164.736 281.71343 
L 176.636941 280.361441 
L 188.547059 278.891841 
L 200.448 277.311518 
L 212.348941 275.630538 
L 224.249883 273.859495 
L 236.16 272.009516 
L 248.060941 270.094904 
L 259.961883 268.131023 
L 271.872 266.134826 
L 283.772941 264.127503 
L 295.673883 262.131306 
L 307.584 260.171663 
L 319.484941 258.277712 
L 331.385883 256.480181 
L 343.296 254.814564 
L 355.196941 253.316886 
L 367.097883 252.024232 
L 379.008 250.972626 
L 390.908941 250.194914 
L 402.809883 249.717056 
L 414.72 249.555474 
" clip-path="url(#pe23b6c7594)" style="fill: none; stroke: #000000; stroke-width: 1.5; stroke-linecap: square"/>
   </g>
   <g id="line2d_14">
    <path d="M 57.6 287.697784 
L 69.500941 287.622026 
L 81.411059 287.394222 
L 93.312 287.015962 
L 105.212941 286.488305 
L 117.123059 285.813369 
L 129.024 284.994865 
L 140.924941 284.03544 
L 152.835059 282.939862 
L 164.736 281.71343 
L 176.636941 280.361441 
L 188.547059 278.891841 
L 200.448 277.311518 
L 212.348941 275.630538 
L 224.249883 273.859495 
L 236.16 272.009516 
L 248.060941 270.094904 
L 259.961883 268.131023 
L 271.872 266.134826 
L 283.772941 264.127503 
L 295.673883 262.131306 
L 307.584 260.171663 
L 319.484941 258.277712 
L 331.385883 256.480181 
L 343.296 254.814564 
L 355.196941 253.316886 
L 367.097883 252.024232 
L 379.008 250.972626 
L 390.908941 250.194914 
L 402.809883 249.717056 
L 414.72 249.555474 
" clip-path="url(#pe23b6c7594)" style="fill: none; stroke: #000000; stroke-width: 1.5; stroke-linecap: square"/>
   </g>
   <g id="line2d_15">
    <path d="M 57.6 229.71164 
L 69.500941 229.585024 
L 81.411059 229.205174 
L 93.312 228.572091 
L 105.212941 227.686305 
L 117.123059 226.548875 
L 129.024 225.160331 
L 140.924941 223.521733 
L 152.835059 221.63414 
L 164.736 219.499671 
L 176.636941 217.119915 
L 188.547059 214.497522 
L 200.448 211.63567 
L 212.348941 208.537538 
L 224.249883 205.208423 
L 236.16 201.653623 
L 248.060941 197.880026 
L 259.961883 193.897167 
L 271.872 189.716172 
L 283.772941 185.352404 
L 295.673883 180.825465 
L 307.584 176.161844 
L 319.484941 171.398094 
L 331.385883 166.584546 
L 343.296 161.791659 
L 355.196941 157.12221 
L 367.097883 153.054587 
L 379.008 154.488162 
L 390.908941 155.554072 
L 402.809883 156.210995 
L 414.72 156.432441 
" clip-path="url(#pe23b6c7594)" style="fill: none; stroke: #000000; stroke-width: 1.5; stroke-linecap: square"/>
   </g>
   <g id="line2d_16">
    <path d="M 57.6 229.71164 
L 69.500941 229.585024 
L 81.411059 229.205174 
L 93.312 228.572091 
L 105.212941 227.686305 
L 117.123059 226.548875 
L 129.024 225.160331 
L 140.924941 223.521733 
L 152.835059 221.63414 
L 164.736 219.499671 
L 176.636941 217.119915 
L 188.547059 214.497522 
L 200.448 211.63567 
L 212.348941 208.537538 
L 224.249883 205.208423 
L 236.16 201.653623 
L 248.060941 197.880026 
L 259.961883 193.897167 
L 271.872 189.716172 
L 283.772941 185.352404 
L 295.673883 180.825465 
L 307.584 176.161844 
L 319.484941 171.398094 
L 331.385883 166.584546 
L 343.296 161.791659 
L 355.196941 157.12221 
L 367.097883 153.054587 
L 379.008 154.488162 
L 390.908941 155.554072 
L 402.809883 156.210995 
L 414.72 156.432441 
" clip-path="url(#pe23b6c7594)" style="fill: none; stroke: #000000; stroke-width: 1.5; stroke-linecap: square"/>
   </g>
   <g id="line2d_17">
    <path d="M 57.6 229.683032 
L 69.500941 229.556416 
L 81.411059 229.176036 
L 93.312 228.543483 
L 105.212941 227.657697 
L 117.123059 226.520267 
L 129.024 225.131194 
L 140.924941 223.492595 
L 152.835059 221.604472 
L 164.736 219.470003 
L 176.636941 217.089718 
L 188.547059 214.467325 
L 200.448 211.604943 
L 212.348941 208.506281 
L 224.249883 205.176636 
L 236.16 201.621307 
L 248.060941 197.84718 
L 259.961883 193.863262 
L 271.872 189.681207 
L 283.772941 185.316379 
L 295.673883 180.788381 
L 307.584 176.1237 
L 319.484941 171.358361 
L 331.385883 166.542694 
L 343.296 161.747688 
L 355.196941 157.07612 
L 367.097883 152.721358 
L 379.008 148.797304 
L 390.908941 145.624473 
L 402.809883 143.525499 
L 414.72 142.786991 
" clip-path="url(#pe23b6c7594)" style="fill: none; stroke: #000000; stroke-width: 1.5; stroke-linecap: square"/>
   </g>
   <g id="line2d_18">
    <path d="M 57.6 229.683032 
L 69.500941 229.556416 
L 81.411059 229.176036 
L 93.312 228.543483 
L 105.212941 227.657697 
L 117.123059 226.520267 
L 129.024 225.131194 
L 140.924941 223.492595 
L 152.835059 221.604472 
L 164.736 219.470003 
L 176.636941 217.089718 
L 188.547059 214.467325 
L 200.448 211.604943 
L 212.348941 208.506281 
L 224.249883 205.176636 
L 236.16 201.621307 
L 248.060941 197.84718 
L 259.961883 193.863262 
L 271.872 189.681207 
L 283.772941 185.316379 
L 295.673883 180.788381 
L 307.584 176.1237 
L 319.484941 171.358361 
L 331.385883 166.542694 
L 343.296 161.747688 
L 355.196941 157.07612 
L 367.097883 152.721358 
L 379.008 148.797304 
L 390.908941 145.624473 
L 402.809883 143.525499 
L 414.72 142.786991 
" clip-path="url(#pe23b6c7594)" style="fill: none; stroke: #000000; stroke-width: 1.5; stroke-linecap: square"/>
   </g>
   <g id="line2d_19">
    <path d="M 57.6 180.847716 
L 69.500941 180.716861 
L 81.411059 180.324297 
L 93.312 179.670023 
L 105.212941 178.754569 
L 117.123059 177.578995 
L 129.024 176.143831 
L 140.924941 174.451196 
L 152.835059 172.502148 
L 164.736 170.299868 
L 176.636941 167.849122 
L 188.547059 165.156269 
L 200.448 162.231374 
L 212.348941 159.091389 
L 224.249883 155.768102 
L 236.16 152.319787 
L 248.060941 148.868294 
L 259.961883 145.668975 
L 271.872 143.197568 
L 283.772941 141.996035 
L 295.673883 142.183046 
L 307.584 143.398883 
L 319.484941 145.201182 
L 331.385883 147.257774 
L 343.296 149.345623 
L 355.196941 151.313742 
L 367.097883 152.672618 
L 379.008 148.744856 
L 390.908941 145.568847 
L 402.809883 143.467754 
L 414.72 142.728186 
" clip-path="url(#pe23b6c7594)" style="fill: none; stroke: #000000; stroke-width: 1.5; stroke-linecap: square"/>
   </g>
   <g id="line2d_20">
    <path d="M 57.6 180.847716 
L 69.500941 180.716861 
L 81.411059 180.324297 
L 93.312 179.670023 
L 105.212941 178.754569 
L 117.123059 177.578995 
L 129.024 176.143831 
L 140.924941 174.451196 
L 152.835059 172.502148 
L 164.736 170.299868 
L 176.636941 167.849122 
L 188.547059 165.156269 
L 200.448 162.231374 
L 212.348941 159.091389 
L 224.249883 155.768102 
L 236.16 152.319787 
L 248.060941 148.868294 
L 259.961883 145.668975 
L 271.872 143.197568 
L 283.772941 141.996035 
L 295.673883 142.183046 
L 307.584 143.398883 
L 319.484941 145.201182 
L 331.385883 147.257774 
L 343.296 149.345623 
L 355.196941 151.313742 
L 367.097883 152.672618 
L 379.008 148.744856 
L 390.908941 145.568847 
L 402.809883 143.467754 
L 414.72 142.728186 
" clip-path="url(#pe23b6c7594)" style="fill: none; stroke: #000000; stroke-width: 1.5; stroke-linecap: square"/>
   </g>
   <g id="line2d_21">
    <path d="M 57.6 172.975768 
L 69.500941 172.841735 
L 81.411059 172.439105 
L 93.312 171.768938 
L 105.212941 170.830174 
L 117.123059 169.622814 
L 129.024 168.147916 
L 140.924941 166.404422 
L 152.835059 164.392861 
L 164.736 162.112704 
L 176.636941 159.564479 
L 188.547059 156.748188 
L 200.448 153.66383 
L 212.348941 150.349549 
L 224.249883 147.137515 
L 236.16 143.800453 
L 248.060941 140.3977 
L 259.961883 136.971106 
L 271.872 133.438027 
L 283.772941 129.543641 
L 295.673883 125.111532 
L 307.584 120.170838 
L 319.484941 114.808441 
L 331.385883 109.090565 
L 343.296 103.056941 
L 355.196941 96.73406 
L 367.097883 90.142053 
L 379.008 83.304229 
L 390.908941 79.541757 
L 402.809883 80.295099 
L 414.72 80.726867 
" clip-path="url(#pe23b6c7594)" style="fill: none; stroke: #000000; stroke-width: 1.5; stroke-linecap: square"/>
   </g>
   <g id="line2d_22">
    <path d="M 57.6 172.975768 
L 69.500941 172.841735 
L 81.411059 172.439105 
L 93.312 171.768938 
L 105.212941 170.830174 
L 117.123059 169.622814 
L 129.024 168.147916 
L 140.924941 166.404422 
L 152.835059 164.392861 
L 164.736 162.112704 
L 176.636941 159.564479 
L 188.547059 156.748188 
L 200.448 153.66383 
L 212.348941 150.349549 
L 224.249883 147.137515 
L 236.16 143.800453 
L 248.060941 140.3977 
L 259.961883 136.971106 
L 271.872 133.438027 
L 283.772941 129.543641 
L 295.673883 125.111532 
L 307.584 120.170838 
L 319.484941 114.808441 
L 331.385883 109.090565 
L 343.296 103.056941 
L 355.196941 96.73406 
L 367.097883 90.142053 
L 379.008 83.304229 
L 390.908941 79.541757 
L 402.809883 80.295099 
L 414.72 80.726867 
" clip-path="url(#pe23b6c7594)" style="fill: none; stroke: #000000; stroke-width: 1.5; stroke-linecap: square"/>
   </g>
   <g id="line2d_23">
    <path d="M 57.6 172.671147 
L 69.500941 172.537643 
L 81.411059 172.136603 
L 93.312 171.468555 
L 105.212941 170.533499 
L 117.123059 169.331437 
L 129.024 167.861837 
L 140.924941 166.12576 
L 152.835059 164.122675 
L 164.736 161.852584 
L 176.636941 159.316544 
L 188.547059 156.514027 
L 200.448 153.445562 
L 212.348941 150.310875 
L 224.249883 146.689854 
L 236.16 142.800765 
L 248.060941 138.64308 
L 259.961883 134.217328 
L 271.872 129.52351 
L 283.772941 124.573809 
L 295.673883 119.411138 
L 307.584 114.001062 
L 319.484941 108.353646 
L 331.385883 102.490081 
L 343.296 96.455398 
L 355.196941 90.364559 
L 367.097883 84.588937 
L 379.008 80.423835 
L 390.908941 79.536989 
L 402.809883 80.29404 
L 414.72 80.726867 
" clip-path="url(#pe23b6c7594)" style="fill: none; stroke: #000000; stroke-width: 1.5; stroke-linecap: square"/>
   </g>
   <g id="line2d_24">
    <path d="M 57.6 172.671147 
L 69.500941 172.537643 
L 81.411059 172.136603 
L 93.312 171.468555 
L 105.212941 170.533499 
L 117.123059 169.331437 
L 129.024 167.861837 
L 140.924941 166.12576 
L 152.835059 164.122675 
L 164.736 161.852584 
L 176.636941 159.316544 
L 188.547059 156.514027 
L 200.448 153.445562 
L 212.348941 150.310875 
L 224.249883 146.689854 
L 236.16 142.800765 
L 248.060941 138.64308 
L 259.961883 134.217328 
L 271.872 129.52351 
L 283.772941 124.573809 
L 295.673883 119.411138 
L 307.584 114.001062 
L 319.484941 108.353646 
L 331.385883 102.490081 
L 343.296 96.455398 
L 355.196941 90.364559 
L 367.097883 84.588937 
L 379.008 80.423835 
L 390.908941 79.536989 
L 402.809883 80.29404 
L 414.72 80.726867 
" clip-path="url(#pe23b6c7594)" style="fill: none; stroke: #000000; stroke-width: 1.5; stroke-linecap: square"/>
   </g>
   <g id="line2d_25">
    <path d="M 57.6 172.669558 
L 69.500941 172.536054 
L 81.411059 172.135013 
L 93.312 171.466965 
L 105.212941 170.53191 
L 117.123059 169.329847 
L 129.024 167.860248 
L 140.924941 166.124171 
L 152.835059 164.121086 
L 164.736 161.850994 
L 176.636941 159.314955 
L 188.547059 156.511908 
L 200.448 153.443443 
L 212.348941 150.11115 
L 224.249883 146.511849 
L 236.16 142.64819 
L 248.060941 138.521232 
L 259.961883 134.132034 
L 271.872 129.481657 
L 283.772941 124.57169 
L 295.673883 119.409019 
L 307.584 113.998413 
L 319.484941 108.350997 
L 331.385883 102.487432 
L 343.296 96.452219 
L 355.196941 90.360321 
L 367.097883 84.583109 
L 379.008 80.416418 
L 390.908941 76.261912 
L 402.809883 69.154961 
L 414.72 63.843423 
" clip-path="url(#pe23b6c7594)" style="fill: none; stroke: #000000; stroke-width: 1.5; stroke-linecap: square"/>
   </g>
   <g id="line2d_26">
    <path d="M 57.6 172.669558 
L 69.500941 172.536054 
L 81.411059 172.135013 
L 93.312 171.466965 
L 105.212941 170.53191 
L 117.123059 169.329847 
L 129.024 167.860248 
L 140.924941 166.124171 
L 152.835059 164.121086 
L 164.736 161.850994 
L 176.636941 159.314955 
L 188.547059 156.511908 
L 200.448 153.443443 
L 212.348941 150.11115 
L 224.249883 146.511849 
L 236.16 142.64819 
L 248.060941 138.521232 
L 259.961883 134.132034 
L 271.872 129.481657 
L 283.772941 124.57169 
L 295.673883 119.409019 
L 307.584 113.998413 
L 319.484941 108.350997 
L 331.385883 102.487432 
L 343.296 96.452219 
L 355.196941 90.360321 
L 367.097883 84.583109 
L 379.008 80.416418 
L 390.908941 76.261912 
L 402.809883 69.154961 
L 414.72 63.843423 
" clip-path="url(#pe23b6c7594)" style="fill: none; stroke: #000000; stroke-width: 1.5; stroke-linecap: square"/>
   </g>
   <g id="line2d_27">
    <path d="M 57.6 171.59729 
L 69.500941 171.468555 
L 81.411059 171.082348 
L 93.312 170.439199 
L 105.212941 169.540169 
L 117.123059 168.385256 
L 129.024 166.976581 
L 140.924941 165.316262 
L 152.835059 163.406418 
L 164.736 161.252347 
L 176.636941 158.858817 
L 188.547059 156.234305 
L 200.448 153.391525 
L 212.348941 150.10956 
L 224.249883 146.51026 
L 236.16 142.6466 
L 248.060941 138.519642 
L 259.961883 134.129915 
L 271.872 129.479538 
L 283.772941 124.561624 
L 295.673883 119.331142 
L 307.584 113.832593 
L 319.484941 108.065977 
L 331.385883 102.030765 
L 343.296 95.728015 
L 355.196941 89.156669 
L 367.097883 82.316726 
L 379.008 75.209246 
L 390.908941 67.833169 
L 402.809883 60.907403 
L 414.72 59.550116 
" clip-path="url(#pe23b6c7594)" style="fill: none; stroke: #000000; stroke-width: 1.5; stroke-linecap: square"/>
   </g>
   <g id="line2d_28">
    <path d="M 57.6 171.59729 
L 69.500941 171.468555 
L 81.411059 171.082348 
L 93.312 170.439199 
L 105.212941 169.540169 
L 117.123059 168.385256 
L 129.024 166.976581 
L 140.924941 165.316262 
L 152.835059 163.406418 
L 164.736 161.252347 
L 176.636941 158.858817 
L 188.547059 156.234305 
L 200.448 153.391525 
L 212.348941 150.10956 
L 224.249883 146.51026 
L 236.16 142.6466 
L 248.060941 138.519642 
L 259.961883 134.129915 
L 271.872 129.479538 
L 283.772941 124.561624 
L 295.673883 119.331142 
L 307.584 113.832593 
L 319.484941 108.065977 
L 331.385883 102.030765 
L 343.296 95.728015 
L 355.196941 89.156669 
L 367.097883 82.316726 
L 379.008 75.209246 
L 390.908941 67.833169 
L 402.809883 60.907403 
L 414.72 59.550116 
" clip-path="url(#pe23b6c7594)" style="fill: none; stroke: #000000; stroke-width: 1.5; stroke-linecap: square"/>
   </g>
   <g id="line2d_29">
    <path d="M 57.6 167.030088 
L 69.500941 166.896055 
L 81.411059 166.493954 
L 93.312 165.823258 
L 105.212941 164.884494 
L 117.123059 163.677663 
L 129.024 162.202236 
L 140.924941 160.458742 
L 152.835059 158.447181 
L 164.736 156.167553 
L 176.636941 153.619329 
L 188.547059 150.803038 
L 200.448 147.71868 
L 212.348941 144.365725 
L 224.249883 140.745233 
L 236.16 136.855615 
L 248.060941 132.69846 
L 259.961883 128.273237 
L 271.872 123.579419 
L 283.772941 119.423853 
L 295.673883 115.079157 
L 307.584 110.295806 
L 319.484941 105.102938 
L 331.385883 99.545584 
L 343.296 93.662417 
L 355.196941 87.484165 
L 367.097883 81.036786 
L 379.008 74.356306 
L 390.908941 67.519012 
L 402.809883 60.189556 
L 414.72 54.468501 
" clip-path="url(#pe23b6c7594)" style="fill: none; stroke: #000000; stroke-width: 1.5; stroke-linecap: square"/>
   </g>
   <g id="line2d_30">
    <path d="M 57.6 167.030088 
L 69.500941 166.896055 
L 81.411059 166.493954 
L 93.312 165.823258 
L 105.212941 164.884494 
L 117.123059 163.677663 
L 129.024 162.202236 
L 140.924941 160.458742 
L 152.835059 158.447181 
L 164.736 156.167553 
L 176.636941 153.619329 
L 188.547059 150.803038 
L 200.448 147.71868 
L 212.348941 144.365725 
L 224.249883 140.745233 
L 236.16 136.855615 
L 248.060941 132.69846 
L 259.961883 128.273237 
L 271.872 123.579419 
L 283.772941 119.423853 
L 295.673883 115.079157 
L 307.584 110.295806 
L 319.484941 105.102938 
L 331.385883 99.545584 
L 343.296 93.662417 
L 355.196941 87.484165 
L 367.097883 81.036786 
L 379.008 74.356306 
L 390.908941 67.519012 
L 402.809883 60.189556 
L 414.72 54.468501 
" clip-path="url(#pe23b6c7594)" style="fill: none; stroke: #000000; stroke-width: 1.5; stroke-linecap: square"/>
   </g>
   <g id="line2d_31">
    <path d="M 57.6 164.446899 
L 69.500941 164.313395 
L 81.411059 163.913414 
L 93.312 163.244836 
L 105.212941 162.309781 
L 117.123059 161.107718 
L 129.024 159.638118 
L 140.924941 157.902041 
L 152.835059 155.898957 
L 164.736 153.629395 
L 176.636941 151.093355 
L 188.547059 148.290838 
L 200.448 145.222373 
L 212.348941 141.88849 
L 224.249883 138.28866 
L 236.16 134.425001 
L 248.060941 130.686899 
L 259.961883 127.088128 
L 271.872 123.377574 
L 283.772941 118.617003 
L 295.673883 113.387051 
L 307.584 107.888502 
L 319.484941 102.122416 
L 331.385883 96.087733 
L 343.296 89.784454 
L 355.196941 83.213637 
L 367.097883 76.374754 
L 379.008 71.130498 
L 390.908941 65.641485 
L 402.809883 59.034643 
L 414.72 53.198097 
" clip-path="url(#pe23b6c7594)" style="fill: none; stroke: #000000; stroke-width: 1.5; stroke-linecap: square"/>
   </g>
   <g id="line2d_32">
    <path d="M 57.6 164.445839 
L 69.500941 164.312865 
L 81.411059 163.911824 
L 93.312 163.244306 
L 105.212941 162.309251 
L 117.123059 161.106658 
L 129.024 159.637059 
L 140.924941 157.900982 
L 152.835059 155.897897 
L 164.736 153.628865 
L 176.636941 151.092296 
L 188.547059 148.290308 
L 200.448 145.221314 
L 212.348941 141.887961 
L 224.249883 138.28813 
L 236.16 134.424471 
L 248.060941 130.686899 
L 259.961883 127.088128 
L 271.872 123.377574 
L 283.772941 118.617003 
L 295.673883 113.387051 
L 307.584 107.888502 
L 319.484941 102.122416 
L 331.385883 96.087733 
L 343.296 89.784454 
L 355.196941 83.213637 
L 367.097883 76.374754 
L 379.008 71.129438 
L 390.908941 65.641485 
L 402.809883 59.034643 
L 414.72 53.197037 
" clip-path="url(#pe23b6c7594)" style="fill: none; stroke: #000000; stroke-width: 1.5; stroke-linecap: square"/>
   </g>
   <g id="line2d_33">
    <path d="M 57.6 307.584 
L 57.6 41.472 
" clip-path="url(#pe23b6c7594)" style="fill: none; stroke-dasharray: 5.55,2.4; stroke-dashoffset: 0; stroke: #000000; stroke-opacity: 0.75; stroke-width: 1.5"/>
   </g>
   <g id="line2d_34">
    <path d="M 414.72 307.584 
L 414.72 41.472 
" clip-path="url(#pe23b6c7594)" style="fill: none; stroke-dasharray: 5.55,2.4; stroke-dashoffset: 0; stroke: #000000; stroke-opacity: 0.75; stroke-width: 1.5"/>
   </g>
   <g id="line2d_35">
    <path d="M 57.6 201.628724 
L 414.72 201.628724 
" clip-path="url(#pe23b6c7594)" style="fill: none; stroke-dasharray: 1.5,2.475; stroke-dashoffset: 0; stroke: #ff0000; stroke-width: 1.5"/>
   </g>
   <g id="patch_3">
    <path d="M 57.6 307.584 
L 57.6 41.472 
" style="fill: none; stroke: #000000; stroke-width: 0.8; stroke-linejoin: miter; stroke-linecap: square"/>
   </g>
   <g id="patch_4">
    <path d="M 414.72 307.584 
L 414.72 41.472 
" style="fill: none; stroke: #000000; stroke-width: 0.8; stroke-linejoin: miter; stroke-linecap: square"/>
   </g>
   <g id="patch_5">
    <path d="M 57.6 307.584 
L 414.72 307.584 
" style="fill: none; stroke: #000000; stroke-width: 0.8; stroke-linejoin: miter; stroke-linecap: square"/>
   </g>
   <g id="patch_6">
    <path d="M 57.6 41.472 
L 414.72 41.472 
" style="fill: none; stroke: #000000; stroke-width: 0.8; stroke-linejoin: miter; stroke-linecap: square"/>
   </g>
   <g id="text_15">
    <!-- Band structure of 1*1*1 C chain (with SOC) -->
    <g transform="translate(106.377187 35.472) scale(0.12 -0.12)">
     <defs>
      <path id="DejaVuSans-42" d="M 1259 2228 
L 1259 519 
L 2272 519 
Q 2781 519 3026 730 
Q 3272 941 3272 1375 
Q 3272 1813 3026 2020 
Q 2781 2228 2272 2228 
L 1259 2228 
z
M 1259 4147 
L 1259 2741 
L 2194 2741 
Q 2656 2741 2882 2914 
Q 3109 3088 3109 3444 
Q 3109 3797 2882 3972 
Q 2656 4147 2194 4147 
L 1259 4147 
z
M 628 4666 
L 2241 4666 
Q 2963 4666 3353 4366 
Q 3744 4066 3744 3513 
Q 3744 3084 3544 2831 
Q 3344 2578 2956 2516 
Q 3422 2416 3680 2098 
Q 3938 1781 3938 1306 
Q 3938 681 3513 340 
Q 3088 0 2303 0 
L 628 0 
L 628 4666 
z
" transform="scale(0.015625)"/>
      <path id="DejaVuSans-61" d="M 2194 1759 
Q 1497 1759 1228 1600 
Q 959 1441 959 1056 
Q 959 750 1161 570 
Q 1363 391 1709 391 
Q 2188 391 2477 730 
Q 2766 1069 2766 1631 
L 2766 1759 
L 2194 1759 
z
M 3341 1997 
L 3341 0 
L 2766 0 
L 2766 531 
Q 2569 213 2275 61 
Q 1981 -91 1556 -91 
Q 1019 -91 701 211 
Q 384 513 384 1019 
Q 384 1609 779 1909 
Q 1175 2209 1959 2209 
L 2766 2209 
L 2766 2266 
Q 2766 2663 2505 2880 
Q 2244 3097 1772 3097 
Q 1472 3097 1187 3025 
Q 903 2953 641 2809 
L 641 3341 
Q 956 3463 1253 3523 
Q 1550 3584 1831 3584 
Q 2591 3584 2966 3190 
Q 3341 2797 3341 1997 
z
" transform="scale(0.015625)"/>
      <path id="DejaVuSans-64" d="M 2906 2969 
L 2906 4863 
L 3481 4863 
L 3481 0 
L 2906 0 
L 2906 525 
Q 2725 213 2448 61 
Q 2172 -91 1784 -91 
Q 1150 -91 751 415 
Q 353 922 353 1747 
Q 353 2572 751 3078 
Q 1150 3584 1784 3584 
Q 2172 3584 2448 3432 
Q 2725 3281 2906 2969 
z
M 947 1747 
Q 947 1113 1208 752 
Q 1469 391 1925 391 
Q 2381 391 2643 752 
Q 2906 1113 2906 1747 
Q 2906 2381 2643 2742 
Q 2381 3103 1925 3103 
Q 1469 3103 1208 2742 
Q 947 2381 947 1747 
z
" transform="scale(0.015625)"/>
      <path id="DejaVuSans-75" d="M 544 1381 
L 544 3500 
L 1119 3500 
L 1119 1403 
Q 1119 906 1312 657 
Q 1506 409 1894 409 
Q 2359 409 2629 706 
Q 2900 1003 2900 1516 
L 2900 3500 
L 3475 3500 
L 3475 0 
L 2900 0 
L 2900 538 
Q 2691 219 2414 64 
Q 2138 -91 1772 -91 
Q 1169 -91 856 284 
Q 544 659 544 1381 
z
M 1991 3584 
L 1991 3584 
z
" transform="scale(0.015625)"/>
      <path id="DejaVuSans-63" d="M 3122 3366 
L 3122 2828 
Q 2878 2963 2633 3030 
Q 2388 3097 2138 3097 
Q 1578 3097 1268 2742 
Q 959 2388 959 1747 
Q 959 1106 1268 751 
Q 1578 397 2138 397 
Q 2388 397 2633 464 
Q 2878 531 3122 666 
L 3122 134 
Q 2881 22 2623 -34 
Q 2366 -91 2075 -91 
Q 1284 -91 818 406 
Q 353 903 353 1747 
Q 353 2603 823 3093 
Q 1294 3584 2113 3584 
Q 2378 3584 2631 3529 
Q 2884 3475 3122 3366 
z
" transform="scale(0.015625)"/>
      <path id="DejaVuSans-66" d="M 2375 4863 
L 2375 4384 
L 1825 4384 
Q 1516 4384 1395 4259 
Q 1275 4134 1275 3809 
L 1275 3500 
L 2222 3500 
L 2222 3053 
L 1275 3053 
L 1275 0 
L 697 0 
L 697 3053 
L 147 3053 
L 147 3500 
L 697 3500 
L 697 3744 
Q 697 4328 969 4595 
Q 1241 4863 1831 4863 
L 2375 4863 
z
" transform="scale(0.015625)"/>
      <path id="DejaVuSans-2a" d="M 3009 3897 
L 1888 3291 
L 3009 2681 
L 2828 2375 
L 1778 3009 
L 1778 1831 
L 1422 1831 
L 1422 3009 
L 372 2375 
L 191 2681 
L 1313 3291 
L 191 3897 
L 372 4206 
L 1422 3572 
L 1422 4750 
L 1778 4750 
L 1778 3572 
L 2828 4206 
L 3009 3897 
z
" transform="scale(0.015625)"/>
      <path id="DejaVuSans-43" d="M 4122 4306 
L 4122 3641 
Q 3803 3938 3442 4084 
Q 3081 4231 2675 4231 
Q 1875 4231 1450 3742 
Q 1025 3253 1025 2328 
Q 1025 1406 1450 917 
Q 1875 428 2675 428 
Q 3081 428 3442 575 
Q 3803 722 4122 1019 
L 4122 359 
Q 3791 134 3420 21 
Q 3050 -91 2638 -91 
Q 1578 -91 968 557 
Q 359 1206 359 2328 
Q 359 3453 968 4101 
Q 1578 4750 2638 4750 
Q 3056 4750 3426 4639 
Q 3797 4528 4122 4306 
z
" transform="scale(0.015625)"/>
      <path id="DejaVuSans-68" d="M 3513 2113 
L 3513 0 
L 2938 0 
L 2938 2094 
Q 2938 2591 2744 2837 
Q 2550 3084 2163 3084 
Q 1697 3084 1428 2787 
Q 1159 2491 1159 1978 
L 1159 0 
L 581 0 
L 581 4863 
L 1159 4863 
L 1159 2956 
Q 1366 3272 1645 3428 
Q 1925 3584 2291 3584 
Q 2894 3584 3203 3211 
Q 3513 2838 3513 2113 
z
" transform="scale(0.015625)"/>
      <path id="DejaVuSans-77" d="M 269 3500 
L 844 3500 
L 1563 769 
L 2278 3500 
L 2956 3500 
L 3675 769 
L 4391 3500 
L 4966 3500 
L 4050 0 
L 3372 0 
L 2619 2869 
L 1863 0 
L 1184 0 
L 269 3500 
z
" transform="scale(0.015625)"/>
      <path id="DejaVuSans-53" d="M 3425 4513 
L 3425 3897 
Q 3066 4069 2747 4153 
Q 2428 4238 2131 4238 
Q 1616 4238 1336 4038 
Q 1056 3838 1056 3469 
Q 1056 3159 1242 3001 
Q 1428 2844 1947 2747 
L 2328 2669 
Q 3034 2534 3370 2195 
Q 3706 1856 3706 1288 
Q 3706 609 3251 259 
Q 2797 -91 1919 -91 
Q 1588 -91 1214 -16 
Q 841 59 441 206 
L 441 856 
Q 825 641 1194 531 
Q 1563 422 1919 422 
Q 2459 422 2753 634 
Q 3047 847 3047 1241 
Q 3047 1584 2836 1778 
Q 2625 1972 2144 2069 
L 1759 2144 
Q 1053 2284 737 2584 
Q 422 2884 422 3419 
Q 422 4038 858 4394 
Q 1294 4750 2059 4750 
Q 2388 4750 2728 4690 
Q 3069 4631 3425 4513 
z
" transform="scale(0.015625)"/>
      <path id="DejaVuSans-4f" d="M 2522 4238 
Q 1834 4238 1429 3725 
Q 1025 3213 1025 2328 
Q 1025 1447 1429 934 
Q 1834 422 2522 422 
Q 3209 422 3611 934 
Q 4013 1447 4013 2328 
Q 4013 3213 3611 3725 
Q 3209 4238 2522 4238 
z
M 2522 4750 
Q 3503 4750 4090 4092 
Q 4678 3434 4678 2328 
Q 4678 1225 4090 567 
Q 3503 -91 2522 -91 
Q 1538 -91 948 565 
Q 359 1222 359 2328 
Q 359 3434 948 4092 
Q 1538 4750 2522 4750 
z
" transform="scale(0.015625)"/>
     </defs>
     <use xlink:href="#DejaVuSans-42"/>
     <use xlink:href="#DejaVuSans-61" x="68.603516"/>
     <use xlink:href="#DejaVuSans-6e" x="129.882812"/>
     <use xlink:href="#DejaVuSans-64" x="193.261719"/>
     <use xlink:href="#DejaVuSans-20" x="256.738281"/>
     <use xlink:href="#DejaVuSans-73" x="288.525391"/>
     <use xlink:href="#DejaVuSans-74" x="340.625"/>
     <use xlink:href="#DejaVuSans-72" x="379.833984"/>
     <use xlink:href="#DejaVuSans-75" x="420.947266"/>
     <use xlink:href="#DejaVuSans-63" x="484.326172"/>
     <use xlink:href="#DejaVuSans-74" x="539.306641"/>
     <use xlink:href="#DejaVuSans-75" x="578.515625"/>
     <use xlink:href="#DejaVuSans-72" x="641.894531"/>
     <use xlink:href="#DejaVuSans-65" x="680.757812"/>
     <use xlink:href="#DejaVuSans-20" x="742.28125"/>
     <use xlink:href="#DejaVuSans-6f" x="774.068359"/>
     <use xlink:href="#DejaVuSans-66" x="835.25"/>
     <use xlink:href="#DejaVuSans-20" x="870.455078"/>
     <use xlink:href="#DejaVuSans-31" x="902.242188"/>
     <use xlink:href="#DejaVuSans-2a" x="965.865234"/>
     <use xlink:href="#DejaVuSans-31" x="1015.865234"/>
     <use xlink:href="#DejaVuSans-2a" x="1079.488281"/>
     <use xlink:href="#DejaVuSans-31" x="1129.488281"/>
     <use xlink:href="#DejaVuSans-20" x="1193.111328"/>
     <use xlink:href="#DejaVuSans-43" x="1224.898438"/>
     <use xlink:href="#DejaVuSans-20" x="1294.722656"/>
     <use xlink:href="#DejaVuSans-63" x="1326.509766"/>
     <use xlink:href="#DejaVuSans-68" x="1381.490234"/>
     <use xlink:href="#DejaVuSans-61" x="1444.869141"/>
     <use xlink:href="#DejaVuSans-69" x="1506.148438"/>
     <use xlink:href="#DejaVuSans-6e" x="1533.931641"/>
     <use xlink:href="#DejaVuSans-20" x="1597.310547"/>
     <use xlink:href="#DejaVuSans-28" x="1629.097656"/>
     <use xlink:href="#DejaVuSans-77" x="1668.111328"/>
     <use xlink:href="#DejaVuSans-69" x="1749.898438"/>
     <use xlink:href="#DejaVuSans-74" x="1777.681641"/>
     <use xlink:href="#DejaVuSans-68" x="1816.890625"/>
     <use xlink:href="#DejaVuSans-20" x="1880.269531"/>
     <use xlink:href="#DejaVuSans-53" x="1912.056641"/>
     <use xlink:href="#DejaVuSans-4f" x="1975.533203"/>
     <use xlink:href="#DejaVuSans-43" x="2054.244141"/>
     <use xlink:href="#DejaVuSans-29" x="2124.068359"/>
    </g>
   </g>
  </g>
 </g>
 <defs>
  <clipPath id="pe23b6c7594">
   <rect x="57.6" y="41.472" width="357.12" height="266.112"/>
  </clipPath>
 </defs>
</svg>
